# xmcd
# 
# Track frame offsets:
#     150
#     10385
#     21650
#     33452
#     44295
#     54657
#     64677
#     80080
#     91522
#     102507
#     110992
#     120615
#     132882
#     142850
#     154820
#     166210
#     177385
#     186767
#     198762
#     209432
# 
# Disc length: 2956
# 
# Revision: 2
# Processed by: cddbd v1.5.2PL0 Copyright (c) Steve Scherf et al.
# Submitted via: fre:ac v1.0.31
# 
DISCID=1a0b8a14
DTITLE=Jim Reeves - Legendary Favorites Jim Reeves [CD1]
DYEAR=1997
DGENRE=Country
TTITLE0=Is It Really Over
TTITLE1=Mexicali Rose
TTITLE2=Welcome To My World
TTITLE3=Then I'll Stop Loving You
TTITLE4=I'm Getting Better
TTITLE5=A Fool Such As I
TTITLE6=The Blizzard
TTITLE7=Love Is No Excuse
TTITLE8=I Love You More
TTITLE9=From A Jack To A King
TTITLE10=I'm Gonna Change Everything
TTITLE11=Presious Memories
TTITLE12=Blue Boy
TTITLE13=There's A New Moon Over My Shoulder
TTITLE14=Anna Marie
TTITLE15=Just Walking In The Rain
TTITLE16=I Know One
TTITLE17=Missing You
TTITLE18=Don't Let Me Cross Over
TTITLE19=I Love You Because
EXTD=Not on allmusic.com.
EXTT0=
EXTT1=
EXTT2=
EXTT3=
EXTT4=
EXTT5=
EXTT6=
EXTT7=
EXTT8=
EXTT9=
EXTT10=
EXTT11=
EXTT12=
EXTT13=
EXTT14=
EXTT15=
EXTT16=
EXTT17=
EXTT18=
EXTT19=
PLAYORDER=
